Genre:Action | Adventure | Thriller
Language:English
IMDb:http://www.imdb.com/title/tt0429493/
Video Source:DvD ELEKTRI4KA Thanks
Audio Source:IMAGINE Thanks
Subtitles:ROMANA/Hardcoded English When Need
Samples:yes
Encoder: Tony2
.............................................
General
Complete name : The.A-Team.2010.R5.LINE.H264.FEEL-FREE
Format : MPEG-4
Format profile : Base Media
Codec ID : isom
File size : 1.31 GiB
Duration : 1h 53mn
Overall bit rate : 1 652 Kbps
.............................................
Video
ID : 2
Format : AVC
Format/Info : Advanced Video Codec
Format profile : Baseline@L1.3
Format settings, CABAC : No
Format settings, ReFrames : 1 frame
Codec ID : avc1
Codec ID/Info : Advanced Video Coding
Duration : 1h 53mn
Bit rate mode : Variable
Bit rate : 1 519 Kbps
Width : 720 pixels
Height : 304 pixels
Display aspect ratio : 2.35:1
Frame rate mode : Constant
Frame rate : 25.000 fps
Resolution : 24 bits
Colorimetry : 4:2:0
Scan type : Progressive
Bits/(Pixel*Frame) : 0.278
Stream size : 1.21 GiB (92%)
Writing library : PÜL╒ÜPB≈║l ║0≡@
Language : English
...............................................
Audio
ID : 1
Format : AAC
Format/Info : Advanced Audio Codec
Format version : Version 4
Format profile : LC
Format settings, SBR : No
Codec ID : 40
Duration : 1h 53mn
Bit rate mode : Constant
Bit rate : 128 Kbps
Channel(s) : 2 channels
Channel positions : L R
Sampling rate : 44.1 KHz
Resolution : 16 bits
Stream size : 104 MiB (8%)
Language : English
................................................
Plot:
A group of Iraq War veterans looks to clear their name with the U.S. military, who suspect the four men of committing a crime for which they were framed
...................................................